<svg id="圖層_1" data-name="圖層 1" xmlns="http://www.w3.org/2000/svg" xmlns:xlink="http://www.w3.org/1999/xlink" viewBox="0 0 341.01 500"><defs><style>.cls-1{fill:url(#linear-gradient);}.cls-2{fill:url(#linear-gradient-2);}.cls-3{fill:url(#linear-gradient-3);}.cls-4{fill:url(#radial-gradient);}.cls-5{fill:url(#linear-gradient-4);}.cls-6{fill:url(#linear-gradient-5);}.cls-7{fill:url(#linear-gradient-6);}.cls-8{fill:url(#radial-gradient-2);}</style><linearGradient id="linear-gradient" x1="108.37" y1="183.42" x2="249.47" y2="92.81" gradientUnits="userSpaceOnUse"><stop offset="0" stop-color="#c8992e"/><stop offset="0.15" stop-color="#b57e10"/><stop offset="0.43" stop-color="#f9df7b"/><stop offset="0.59" stop-color="#fff3a6"/><stop offset="0.73" stop-color="#f9df7b"/><stop offset="0.93" stop-color="#b57e10"/><stop offset="0.94" stop-color="#b98416"/><stop offset="1" stop-color="#cda035"/></linearGradient><linearGradient id="linear-gradient-2" x1="-1539.93" y1="-2806.63" x2="-1399.05" y2="-2806.63" gradientTransform="translate(-1298.72 -2686.88) rotate(180)" xlink:href="#linear-gradient"/><linearGradient id="linear-gradient-3" x1="107.26" y1="215.69" x2="244.57" y2="89.07" xlink:href="#linear-gradient"/><radialGradient id="radial-gradient" cx="188.4" cy="2.79" r="254.67" gradientUnits="userSpaceOnUse"><stop offset="0" stop-color="#ff6f50"/><stop offset="0.17" stop-color="#e9523c"/><stop offset="0.41" stop-color="#cd2f24"/><stop offset="0.63" stop-color="#b91512"/><stop offset="0.84" stop-color="#ad0508"/><stop offset="1" stop-color="#a90004"/></radialGradient><linearGradient id="linear-gradient-4" x1="58.41" y1="217.67" x2="293.06" y2="452.32" gradientUnits="userSpaceOnUse"><stop offset="0" stop-color="#fbf89c"/><stop offset="0.03" stop-color="#f9f498"/><stop offset="0.07" stop-color="#f5ea8b"/><stop offset="0.1" stop-color="#eed875"/><stop offset="0.14" stop-color="#e3bf57"/><stop offset="0.18" stop-color="#d8a335"/><stop offset="0.22" stop-color="#ca9430"/><stop offset="0.31" stop-color="#a56d22"/><stop offset="0.32" stop-color="#a16921"/><stop offset="0.37" stop-color="#aa7324"/><stop offset="0.44" stop-color="#c38c2d"/><stop offset="0.5" stop-color="#d8a335"/><stop offset="0.56" stop-color="#e5c15a"/><stop offset="0.64" stop-color="#f1df7e"/><stop offset="0.71" stop-color="#f8f194"/><stop offset="0.75" stop-color="#fbf89c"/><stop offset="0.81" stop-color="#fbf89c"/><stop offset="0.83" stop-color="#f8f194"/><stop offset="0.85" stop-color="#f1df7e"/><stop offset="0.89" stop-color="#e5c25a"/><stop offset="0.91" stop-color="#d8a335"/><stop offset="0.95" stop-color="#d9a738"/><stop offset="0.99" stop-color="#dbb242"/><stop offset="1" stop-color="#dcb949"/></linearGradient><linearGradient id="linear-gradient-5" x1="170.92" y1="503.18" x2="170.92" y2="159.75" gradientTransform="translate(283.53 -24.15) rotate(45)" xlink:href="#linear-gradient-4"/><linearGradient id="linear-gradient-6" x1="37.15" y1="330.18" x2="309.58" y2="330.18" xlink:href="#linear-gradient-4"/><radialGradient id="radial-gradient-2" cx="218.02" cy="279.5" r="131.21" xlink:href="#radial-gradient"/></defs><title>Roulette_pointer</title><path class="cls-1" d="M244.25,239.08V134.82a137.72,137.72,0,0,0-35.5-92.21L170.77.44l-38,42.17A137.76,137.76,0,0,0,97.3,134.82V239.08Z"/><path class="cls-2" d="M241.22,235.35v-101a134.33,134.33,0,0,0-34-89.34L170.77,4.16,134.36,45a134.28,134.28,0,0,0-34,89.34v101Z"/><path class="cls-3" d="M230.28,234.17v-91.3c0-29.78-10.23-58.52-28.75-80.75L170.77,25.19,140,62.12c-18.51,22.23-28.74,51-28.74,80.75v91.3Z"/><path class="cls-4" d="M227.54,235.35V146.11c0-29.1-9.76-57.2-27.42-78.93L170.77,31.09,141.43,67.18C123.77,88.91,114,117,114,146.11v89.24Z"/><circle class="cls-5" cx="170.92" cy="330.18" r="169.82"/><circle class="cls-6" cx="170.92" cy="330.18" r="166.29" transform="translate(-183.41 217.57) rotate(-45)"/><circle class="cls-7" cx="170.92" cy="330.18" r="137.35"/><path class="cls-8" d="M300.66,308.88c-12.09-74-80.25-101.2-69.83-95.67-61.18-28.75-110.76-4.31-110.58-4.31-126,50.34-97,240.32,39.19,252.21C245.64,468.38,314.42,392.86,300.66,308.88Z"/></svg>