<svg id="圖層_1" data-name="圖層 1" xmlns="http://www.w3.org/2000/svg" xmlns:xlink="http://www.w3.org/1999/xlink" viewBox="0 0 500 500"><defs><style>.cls-1{fill:url(#linear-gradient);}.cls-2{fill:url(#radial-gradient);}.cls-3{fill:none;stroke-miterlimit:10;stroke-width:4px;stroke:url(#linear-gradient-2);}.cls-4{fill:url(#radial-gradient-2);}.cls-5{fill:url(#radial-gradient-3);}.cls-6{fill:url(#radial-gradient-4);}.cls-7{fill:url(#radial-gradient-5);}.cls-8{fill:url(#radial-gradient-6);}.cls-9{fill:url(#radial-gradient-7);}.cls-10{fill:url(#radial-gradient-8);}.cls-11{fill:url(#radial-gradient-9);}.cls-12{fill:url(#radial-gradient-10);}.cls-13{fill:url(#radial-gradient-11);}.cls-14{fill:url(#radial-gradient-12);}.cls-15{fill:url(#radial-gradient-13);}.cls-16{fill:url(#radial-gradient-14);}.cls-17{fill:url(#radial-gradient-15);}.cls-18{fill:url(#radial-gradient-16);}.cls-19{fill:url(#radial-gradient-17);}</style><linearGradient id="linear-gradient" x1="419.9" y1="80.09" x2="60.83" y2="439.16" gradientUnits="userSpaceOnUse"><stop offset="0" stop-color="#f9df7b"/><stop offset="0.2" stop-color="#b57e10"/><stop offset="0.26" stop-color="#b78114"/><stop offset="0.32" stop-color="#bf8c1f"/><stop offset="0.38" stop-color="#cb9e33"/><stop offset="0.44" stop-color="#ddb64e"/><stop offset="0.49" stop-color="#f3d671"/><stop offset="0.51" stop-color="#f9df7b"/><stop offset="0.52" stop-color="#fff3a6"/><stop offset="0.59" stop-color="#f9df7b"/><stop offset="0.84" stop-color="#b57e10"/><stop offset="0.95" stop-color="#e5c35c"/><stop offset="1" stop-color="#f9df7b"/></linearGradient><radialGradient id="radial-gradient" cx="250.32" cy="249.72" r="246.06" gradientUnits="userSpaceOnUse"><stop offset="0" stop-color="#5c573a"/><stop offset="0.85" stop-color="#580043"/><stop offset="1" stop-color="#300025"/></radialGradient><linearGradient id="linear-gradient-2" x1="98.88" y1="98.28" x2="401.76" y2="401.15" gradientTransform="translate(249.89 -103.86) rotate(45)" xlink:href="#linear-gradient"/><radialGradient id="radial-gradient-2" cx="-980.7" cy="-1648.93" r="11.74" gradientTransform="matrix(-0.98, -0.19, 0.19, -0.98, -439.74, -1331.34)" gradientUnits="userSpaceOnUse"><stop offset="0" stop-color="#f5d919"/><stop offset="0.85" stop-color="#f16922"/><stop offset="1" stop-color="#f5d919"/></radialGradient><radialGradient id="radial-gradient-3" cx="-638.88" cy="-1846.95" r="11.74" gradientTransform="translate(-696.08 -1208.23) rotate(168.69)" xlink:href="#radial-gradient-2"/><radialGradient id="radial-gradient-4" cx="-376.02" cy="122.28" r="11.74" gradientTransform="matrix(0.83, -0.56, 0.56, 0.83, 367.83, -254.65)" xlink:href="#radial-gradient-2"/><radialGradient id="radial-gradient-5" cx="-757.77" cy="20.95" r="11.74" gradientTransform="matrix(0.55, -0.83, 0.83, 0.55, 461.76, -522.74)" xlink:href="#radial-gradient-2"/><radialGradient id="radial-gradient-6" cx="-1072.04" cy="-219.6" r="11.74" gradientTransform="matrix(0.19, -0.98, 0.98, 0.19, 446.89, -806.64)" xlink:href="#radial-gradient-2"/><radialGradient id="radial-gradient-7" cx="-1270.26" cy="-561.39" r="11.74" gradientTransform="translate(323.79 -1062.97) rotate(-101.31)" xlink:href="#radial-gradient-2"/><radialGradient id="radial-gradient-8" cx="-1322.15" cy="-953.02" r="11.74" gradientTransform="matrix(-0.56, -0.83, 0.83, -0.56, 112.25, -1252.27)" xlink:href="#radial-gradient-2"/><radialGradient id="radial-gradient-9" cx="-1220.38" cy="-1334.61" r="11.74" gradientTransform="matrix(-0.83, -0.55, 0.55, -0.83, -155.84, -1346.2)" xlink:href="#radial-gradient-2"/><radialGradient id="radial-gradient-10" cx="-246.86" cy="-1899.15" r="11.74" gradientTransform="matrix(-0.83, 0.56, -0.56, -0.83, -885.37, -996.7)" xlink:href="#radial-gradient-2"/><radialGradient id="radial-gradient-11" cx="135.18" cy="-1797.22" r="11.74" gradientTransform="matrix(-0.55, 0.83, -0.83, -0.55, -979.31, -728.6)" xlink:href="#radial-gradient-2"/><radialGradient id="radial-gradient-12" cx="448.61" cy="-1557.59" r="11.74" gradientTransform="matrix(-0.19, 0.98, -0.98, -0.19, -964.44, -444.7)" xlink:href="#radial-gradient-2"/><radialGradient id="radial-gradient-13" cx="646.68" cy="-1215.57" r="11.74" gradientTransform="translate(-841.33 -188.36) rotate(78.69)" xlink:href="#radial-gradient-2"/><radialGradient id="radial-gradient-14" cx="699.27" cy="-823.86" r="11.74" gradientTransform="matrix(0.56, 0.83, -0.83, 0.56, -629.8, 0.94)" xlink:href="#radial-gradient-2"/><radialGradient id="radial-gradient-15" cx="597.79" cy="-441.67" r="11.74" gradientTransform="matrix(0.83, 0.55, -0.55, 0.83, -361.7, 94.87)" xlink:href="#radial-gradient-2"/><radialGradient id="radial-gradient-16" cx="357.28" cy="-128.27" r="11.74" gradientTransform="matrix(0.98, 0.19, -0.19, 0.98, -77.8, 80)" xlink:href="#radial-gradient-2"/><radialGradient id="radial-gradient-17" cx="15.3" cy="69.98" r="11.74" gradientTransform="translate(178.54 -43.11) rotate(-11.31)" xlink:href="#radial-gradient-2"/></defs><title>Roulette</title><path class="cls-1" d="M499.86,250.06C499.86,388.09,388,500,249.94,500S0,388.09,0,250.06C0,116,105.47,6.67,238,.42c4-.17,8-.28,12-.28s8,.09,12,.28C394.37,6.67,499.86,116,499.86,250.06Z"/><circle class="cls-2" cx="250.32" cy="249.72" r="246.06"/><circle class="cls-3" cx="250.32" cy="249.72" r="212.17" transform="translate(-103.26 250.14) rotate(-45)"/><path class="cls-4" d="M197.92,473.29a7.7,7.7,0,1,1,6.06,9.06A7.71,7.71,0,0,1,197.92,473.29Z"/><path class="cls-5" d="M287.3,476.21a7.71,7.71,0,1,1,9.07,6A7.7,7.7,0,0,1,287.3,476.21Z"/><path class="cls-6" d="M128.86,55.44a7.7,7.7,0,1,1-10.68-2.11A7.7,7.7,0,0,1,128.86,55.44Z"/><path class="cls-7" d="M63.6,116.59a7.7,7.7,0,1,1-10.69,2.13A7.69,7.69,0,0,1,63.6,116.59Z"/><path class="cls-8" d="M26.7,198.05a7.7,7.7,0,1,1-9,6.06A7.7,7.7,0,0,1,26.7,198.05Z"/><path class="cls-9" d="M23.79,287.43a7.7,7.7,0,1,1-6,9.07A7.71,7.71,0,0,1,23.79,287.43Z"/><path class="cls-10" d="M55.31,371.13a7.7,7.7,0,1,1-2.12,10.69A7.69,7.69,0,0,1,55.31,371.13Z"/><path class="cls-11" d="M116.45,436.4a7.7,7.7,0,1,1,2.14,10.68A7.7,7.7,0,0,1,116.45,436.4Z"/><path class="cls-12" d="M371,444.69a7.7,7.7,0,1,1,10.68,2.11A7.69,7.69,0,0,1,371,444.69Z"/><path class="cls-13" d="M436.26,383.54a7.7,7.7,0,1,1,10.68-2.13A7.69,7.69,0,0,1,436.26,383.54Z"/><path class="cls-14" d="M473.16,302.08a7.71,7.71,0,1,1,9-6.06A7.7,7.7,0,0,1,473.16,302.08Z"/><path class="cls-15" d="M476.07,212.69a7.7,7.7,0,1,1,6-9.06A7.69,7.69,0,0,1,476.07,212.69Z"/><path class="cls-16" d="M444.55,129a7.7,7.7,0,1,1,2.12-10.69A7.7,7.7,0,0,1,444.55,129Z"/><path class="cls-17" d="M383.41,63.73a7.7,7.7,0,1,1-2.14-10.68A7.7,7.7,0,0,1,383.41,63.73Z"/><path class="cls-18" d="M301.94,26.84a7.7,7.7,0,1,1-6.06-9A7.71,7.71,0,0,1,301.94,26.84Z"/><path class="cls-19" d="M212.56,23.93a7.7,7.7,0,1,1-9.07-6.05A7.69,7.69,0,0,1,212.56,23.93Z"/></svg>